<svg version="1.1" id="Layer_1" xmlns="http://www.w3.org/2000/svg" xmlns:xlink="http://www.w3.org/1999/xlink" x="0px" y="0px"
	 viewBox="0 0 612 219" fill="white" style="enable-background:new 0 0 612 219;" xml:space="preserve">
<style type="text/css">
	.st0{fill:none;}
</style>
<g>
	<g>
		<path class="st0" d="M25.5,209.2c0-67.8,0-135.5,0-203.3c182.8,0,365.6,0,548.5,0c0,67.8,0,135.5,0,203.3
			C391.2,209.2,208.3,209.2,25.5,209.2z M216.1,97.8c0.5,1.1,0.9,1.9,1.3,2.7c1.6,3.3,4,5.7,7.7,6.6c5.1,1.3,10.1,1.2,14.7-1.3
			c2.7-1.5,5.3-3.3,7.6-5.4c2-1.8,3.3-2.2,5.4,0.1c3.5,3.9,7.9,6.7,13.2,7.5c13.6,2.1,26.3-0.5,37.6-8.6c2.2-1.6,3.3-1.7,5.1,0.6
			c4.8,6,11.2,8.3,18.8,7.7c5.6-0.4,10.1-3.2,14.1-6.9c1.6-1.4,2.3-1.2,3.7,0.3c2,2.1,4.3,4.3,6.8,5.2c6.9,2.6,13.8,2.1,20-2.1
			c2.4-1.6,4.6-3.7,6.7-5.7c1.3-1.2,2.1-1.4,3.3,0.1c6.2,8.2,15.1,9.5,24.5,9.1c7.8-0.3,14.6-3.3,20.7-8.1c1.6-1.2,2.6-1.2,3.6,0.7
			c1.8,3.5,4.8,5.5,8.5,6.5c8,2.1,15.3,0.8,21.6-4.7c1.4-1.3,2.9-2.5,4.4-3.7c12.1,12.9,24.3,12.1,36.8,0.6c0.9,1.2,1.6,2.1,2.4,3
			c2.4,2.9,5.4,4.8,9.3,5.4c6.7,1,12.2-1.6,17.3-5.5c0.7-0.5,1.5-1,2.4-1.5c0.3,0.7,0.5,0.9,0.5,1.2c-0.6,5.4-2.2,9.6-8.4,11.5
			c-6.6,2.1-12.9,5.3-18.2,10.1c-6.7,6.2-5.3,16.6,2.8,20.5c8.1,4,19.9,2.4,26.6-7.4c4.5-6.6,7.5-13.9,9.6-21.5
			c0.7-2.7,2.3-4.4,4.6-5.8c4.1-2.6,8.4-5.1,12-8.2c3.5-2.9,6.4-6.5,9.4-10c1.3-1.6,2-3.9,0-5.4c-1.9-1.4-3.8-0.3-5.3,1.4
			c-0.5,0.6-0.9,1.2-1.4,1.7c-3.1,3.1-6.2,6.2-9.5,9.2c-1.4,1.3-3.2,2.2-4.8,3.2c-0.3-0.2-0.5-0.4-0.8-0.6c0.3-1.3,0.4-2.6,0.8-3.8
			c2.6-10.3,5.3-20.6,7.9-30.9c1.5-6.2,0.2-9-5.5-11.9c-5.1-2.7-7.9-1.4-9.6,4.1c-2.7,8.7-5.3,17.4-8.3,26
			c-2.1,5.8-5.6,10.8-11.1,13.9c-3.4,1.9-6.1,0.4-6.1-3.5c0-2.3,0.3-4.6,0.9-6.8c2.2-7.3,4.8-14.5,6.9-21.8
			c1.9-6.6,0.6-9.1-6.5-12.4c-4.2-1.9-6.9-0.7-8.4,3.7c-2.8,8.4-5.9,16.9-8,25.5c-1.6,6.8-5.8,11.1-11.2,14.6
			c-2.4,1.6-5,1.8-7.5,0.1c-2.7-1.9-4-4.5-3.7-7.8c1.2-11.2,5-21.6,8.6-32.1c0.8-2.3,2.3-3.3,4.8-3.3c1.7,0,3.5-0.1,5.2-0.4
			c2.2-0.4,3.4-2,3.3-4.1c-0.1-2.2-2.1-1.9-3.6-1.9c-0.9,0-1.8,0-2.8,0c-2.1,0-2.9-0.8-2.1-2.9c0.9-2.5,1.8-5,2.6-7.5
			c0.8-2.3,0.3-4.6-1.5-6.1c-1.8-1.6-4-3-6.2-3.9c-3.5-1.4-5.5-0.5-7.3,2.8c-1.4,2.8-2.6,5.7-3.9,8.5c-1.9,4-2.3,8.9-8,10.2
			c-2.2,0.5-2.6,4.4-1,4.8c3.2,0.9,2.4,2.8,1.8,4.9c-2.1,7.8-4.7,15.5-5.9,23.5c-1.1,7.5-4.9,12.3-11.1,15.6
			c-3.9,2.1-7.3,0.1-7.4-4.3c-0.1-2.5,0.2-5.2,0.9-7.6c1.8-6.5,4-13,5.8-19.5c1.9-6.9-0.8-11.1-7.7-13c-3.8-1-5.8-0.3-7,3.3
			c-3,8.8-5.9,17.6-8.6,26.4c-0.9,2.8-1.1,5.9-3.5,7.9c-2.8,2.2-5.5,4.8-8.6,6.3c-3,1.4-6.6,2.6-9.7,2.2c-8.4-0.9-13.2-7.6-12.3-16
			c0.7-6.2,2.5-12.2,6.5-17c2.1-2.5,5.1-4.4,7.9-6.1c0.8-0.5,2.8,0.6,4,1.5c0.3,0.2-0.5,2.2-1,3.2c-0.4,0.7-1.2,1.1-1.7,1.8
			c-1.6,1.9-1.8,4.2-1,6.5c0.9,2.3,2.9,3.1,5.2,3.4c3.4,0.4,5.8-1,7.6-3.8c3.7-5.7,2.2-13.3-3.4-17.1c-4.2-2.8-8.9-3.5-13.7-2.6
			c-13.5,2.4-25,14.3-27.1,27.9c-0.4,2.6-0.6,5.4-1.7,7.7c-2.1,4-5.4,7-9.4,9c-4.2,2.1-7.6,0.1-7.6-4.6c0-2.4,0.3-5,0.9-7.3
			c1.8-6.5,4-13,5.8-19.5c1.8-6.7-0.9-11-7.6-12.8c-3.9-1.1-5.9-0.3-7.2,3.4c-3.1,9.1-6.6,18.2-8.8,27.5c-1.5,6.2-5.1,10-9.9,13.1
			c-2.5,1.6-5.1,1.9-7.7,0c-2.6-2-3.9-4.5-3.5-7.9c1.2-11,5-21.3,8.5-31.6c0.9-2.7,2.5-3.8,5.3-3.6c1.7,0.1,3.5,0,5.2-0.5
			c1.9-0.5,3.1-2.1,2.9-4.2c-0.3-2-2-1.7-3.5-1.7c-1,0-2,0-3,0c-2,0-2.7-0.8-1.9-2.8c0.9-2.6,1.8-5.2,2.7-7.8
			c0.7-2.2,0.3-4.4-1.4-5.8c-1.9-1.6-4.1-3.1-6.4-4.1c-3.4-1.3-5.4-0.5-7.1,2.7c-1.8,3.6-3.4,7.3-5,11c-1.4,3.3-2.2,6.8-6.7,7.5
			c-0.9,0.1-1.6,2.2-2.1,3.5c-0.1,0.4,0.6,1.5,1,1.6c2.9,0.6,2.3,2.4,1.8,4.4c-2.1,7.7-4.7,15.4-5.9,23.2c-1.2,8-6.4,11.8-12.4,15.3
			c-0.7,0.4-1.7,0.3-2.5,0.4c0-0.8,0-1.5,0-2.3c0.2-1.7,0.4-3.5,0.6-5.2c0.5-5.5-1.7-10.4-3.4-15.5c-1.8-5.2-2.3-10.2,0.5-15.4
			c2.1-3.9-0.5-7.8-5-8.2c-4.3-0.4-7.3,1.9-9.6,4.9c-4.2,5.7-8.2,11.5-12.1,17.4c-1.9,2.9-4.1,5.1-7.6,6.3c-3.8,1.3-7.6,3.3-8.1,7.8
			c-0.6,5.6-4.4,8.2-8.6,10.6c-3.8,2.2-7.7,0.3-6.8-4.7c0.8-4.5,2.2-8.9,3.5-13.3c1.2-4.1,2.8-8,3.8-12.1c1-4.6-0.6-6.5-5.1-7.9
			c-1.7-0.5-3.7-1-4.9-2.1c-6.4-6-18.8-6.2-25.8-1.8c-10.4,6.7-16.7,16.3-19.3,28.1c-1.4,6.4-5.1,10.4-10.3,13.5
			c-3.4,2.1-6.7,1.3-9.4-1.6c-4.3-4.8-3.9-15,0.3-19.9c6.1-7,12.1-14.1,17.4-21.7C188,45.7,193,37,195.8,27.3
			c2.2-7.5,0-13.7-6.1-16.1c-5.6-2.2-10.8-0.7-15.5,2.9c-6.7,5.2-11.1,12.2-15,19.5c-8.4,15.9-13.5,32.8-14.9,50.9
			c-1.1,14.7,9.1,24.8,23.7,23.1c5.1-0.6,9.2-3.1,12.9-6.3c1.7-1.5,2.8-1.5,4.1,0.6c2,3.3,5.1,5.1,9,5.7c6.4,1,11.7-1.3,16.5-5.2
			C212.4,101,214.1,99.5,216.1,97.8z M101.7,6.2C97.9,6.5,94.2,6.7,90.4,7C79.4,8.1,69,11,59.3,16.5c-5.6,3.2-10.5,7.2-13.5,13.1
			C43,35.2,42,41.1,44.9,47c3.2,6.3,13.6,11.6,20.7,10.8c2.1-0.2,3-1.8,2-3.7c-0.6-1-1.6-1.8-2.2-2.8c-1.2-2-2.9-4-3.4-6.2
			c-1.7-7.1,1.1-13.2,5.7-18.4c4.6-5.2,10.4-8.4,17.1-10.1c10.6-2.7,21.2-3.6,31.6,0.7c8.4,3.5,13.9,12.3,12.9,21.1
			c-1.1,9.3-5.4,16.9-12.8,22.6c-4.9,3.7-10.3,5.8-16.4,6.5c-0.9,0.1-2.4,1.3-2.4,1.9c0.1,1,1,2.2,1.9,2.9c0.8,0.6,2.1,0.7,3.2,0.8
			c14.9,1.1,27.5-4,37.6-14.8c11.7-12.5,11.8-35.4-8.2-45.6C122.5,7.9,112.3,6.2,101.7,6.2z M26.1,82.8c-0.3,4.7,1.6,8.4,4.3,11.8
			c7.5,9.5,17.7,13.5,29.5,13.3c9.8-0.1,17.3-4.6,22.2-13c2-3.5,4.1-7.1,5.2-10.9c2.9-9.5,5.2-19.1,7.8-28.7
			c2.6-9.9,5.1-19.8,11.2-28.3c1.2-1.7,3.7-3.6,2-5.7c-0.9-1.1-3.9-0.8-5.8-0.5c-8.7,1.6-15.5,5.7-18.5,14.5
			c-1.5,4.2-2.9,8.5-4.2,12.8c-3.3,11.2-6.4,22.6-10,33.8c-1.8,5.5-4.8,10.6-9.6,14.2c-2.8,2.1-5.8,3-9.3,1.6
			c-7.2-2.9-13-11.3-5.5-21.1c1.9-2.5,4.6-4.4,6.7-6.9c0.8-0.9,1-2.5,0.9-3.7c-0.1-0.5-1.7-1.2-2.6-1.2c-8.5,0-15.3,3.9-21.1,9.7
			C27,77,25.7,79.7,26.1,82.8z M301.6,152.1c1.3-0.5,2.5-0.9,3.6-1.5c4.6-2.7,9.1-5.5,13.7-8.2c3.2-1.9,3.3-3.7,0.1-5.6
			c-4.3-2.7-8.7-5.1-12.9-7.9c-3.2-2.1-6.1-1.9-9.2,0c-4.2,2.7-8.5,5.2-12.7,7.7c-3.2,1.9-3.2,3.7-0.1,5.7c4.6,2.8,9.2,5.6,13.9,8.4
			C299,151.3,300.3,151.6,301.6,152.1z M360.7,194.4c0.2,1,0.5,1.9,0.6,2.9c0.2,1.8,0.4,3.7,0.6,5.5c0.3,2.7,2.4,1.9,4.1,2
			c1.6,0.1,2.3-0.9,2.1-2.2c-0.6-5.9-1.2-11.9-2-17.8c-0.1-0.6-1.2-1.4-1.9-1.5c-2.9-0.3-5.4,0.4-7,3.3c-0.7,1.3-1.7,2.3-3.2,4.4
			c-1.4-1.8-2.3-3.3-3.5-4.5c-2.1-2.2-4.8-2-7.1-0.9c-0.8,0.4-1.1,2.8-1,4.2c0.4,4.9,0.9,9.9,1.6,14.8c0.1,0.8,1.1,2,1.9,2.1
			c2.8,0.6,4.1-0.6,4-3.5c-0.1-2.3-0.3-4.6-0.5-7c2.4,1.1,4.5,2.9,6.1,2.6C357.6,198.4,359,196,360.7,194.4z M405.7,189.3
			c0.3-0.2,0.5-0.4,0.8-0.5c0.8,0.5,1.6,1,2.4,1.6c1.6,1.2,3.1,2.6,4.7,3.8c1.9,1.4,4.2,1.8,5.8,0.4c0.9-0.8,1-3,0.7-4.5
			c-0.8-4.4-2.1-8.7-3-13.1c-0.7-3.1-1.3-3.6-4.2-3.1c-2.8,0.4-2.6,2.3-2.3,4.3c0.3,1.7,0.7,3.3,1,5c-0.2,0.2-0.5,0.3-0.7,0.5
			c-2-1.5-3.8-3.3-6-4.5c-1.6-0.9-3.4-1.6-5.2-1.9c-2.3-0.3-3.4,1.2-3,3.5c1.1,5.2,2.3,10.4,3.5,15.5c0.5,2.4,2.1,2.7,4.2,2.2
			c2.2-0.5,2.8-1.8,2.2-3.9C406.4,192.8,406.1,191.1,405.7,189.3z M299.8,208.7c6.6,0.1,10.6-2.5,11.6-7.8c0.4-1.9,0.3-3.8,0.2-5.8
			c-0.2-3.8-2.1-6.9-5.8-7.9c-3.2-0.8-6.7-0.9-10-0.6c-4,0.3-7.2,3.4-7.8,7.4C286.9,202,288.8,208.6,299.8,208.7z M175.5,189.8
			c6.7,0,10.7-3,11.7-7.4c1.5-6.8-0.2-11.1-5.5-13.3c-2.7-1.1-5.6-1.9-8.4-2.7c-1.8-0.5-3.1,0.1-3.7,1.9c-1.6,5.1-3.3,10.1-4.7,15.3
			c-0.3,1,0.5,3.2,1.4,3.5C169.9,188.4,173.5,189.2,175.5,189.8z M361.9,33.1c-0.3,2.8,0.4,5.6,3.4,7.1c3.2,1.6,6.5,1.3,9.4-0.7
			c4.7-3.3,6.2-8.3,5.7-13.8c-0.5-5.2-4.3-7.5-9.4-6.2C365.5,20.9,361.9,26.1,361.9,33.1z M448.1,33c-0.3,2.7,0.3,5.6,3.3,7.2
			c3.2,1.6,6.5,1.3,9.4-0.7c4.8-3.3,6.2-8.3,5.7-13.7c-0.5-5.3-4.4-7.6-9.6-6.2C451.5,21,448.1,26.1,448.1,33z M200.8,181.2
			c0.2-0.3,0.3-0.6,0.5-0.9c1.2,0.1,2.5,0.3,3.7,0.5c1.4,0.2,2.7,0.6,4,0.7c1.7,0.2,2.6-0.6,2.7-2.3c0.1-1.6-0.1-2.7-1.9-3.1
			c-2.1-0.4-4.3-1-6.4-1.5c-8.3-1.9-7.7-2.3-9.5,5.8c-0.8,3.4-1.8,6.7-2.5,10.1c-0.3,1.5-1.1,3.5,1.3,4.2c4.1,1.1,8.2,2,12.3,2.8
			c1.5,0.3,3,0,3.3-2c0.3-1.8-0.3-3-2.3-3.4c-2-0.4-3.9-0.9-5.8-1.6c-0.5-0.2-0.8-1-1.3-1.6c0.6-0.3,1.3-0.9,1.8-0.8
			c1.7,0.2,3.4,0.7,5.1,1c1.6,0.3,2.9,0,3.4-1.9c0.4-2-0.6-2.9-2.3-3.3c-1.3-0.3-2.7-0.4-4-0.9C202.1,182.6,201.5,181.8,200.8,181.2
			z M380.6,187.9c0-0.3,0-0.7,0-1c0.9-0.4,1.7-0.8,2.6-1c1.5-0.4,3-0.7,4.6-0.9c2.1-0.3,2.5-1.6,2.2-3.3c-0.3-1.9-1.6-2.3-3.3-2
			c-3.5,0.6-7,1.4-10.6,1.8c-2.6,0.3-3.2,1.6-2.9,3.9c0.9,5.1,1.7,10.3,2.5,15.4c0.2,1.6,0.9,2.6,2.7,2.3c4.3-0.7,8.7-1.3,12.9-2.3
			c0.8-0.2,1.5-1.8,1.7-2.8c0.2-1.4-0.7-2.4-2.4-2.2c-1.2,0.1-2.4,0.4-3.5,0.5c-1.7,0.2-3.5,0.3-5.3,0.4c-0.1-0.3-0.2-0.7-0.4-1
			c0.9-0.6,1.8-1.5,2.8-1.9c1.3-0.4,2.7-0.5,4-0.7c2-0.3,2.5-1.5,2.2-3.3c-0.3-1.9-1.6-2.1-3-2c-1.4,0.1-2.7,0.7-4,0.8
			C382.6,188.6,381.6,188.1,380.6,187.9z M250,190.1c0.2-0.3,0.4-0.7,0.7-1c2.5,0.2,5.1,0.5,7.6,0.7c1.8,0.2,2.9-0.8,2.9-2.5
			c0-1-0.8-2.6-1.4-2.7c-4.4-0.6-8.9-1-13.4-1.3c-0.6,0-1.8,0.9-1.9,1.4c-0.8,6-1.4,12-1.9,18c0,0.6,1,1.8,1.7,1.9
			c4.3,0.6,8.6,0.9,12.8,1.3c1.5,0.1,2.5-0.4,2.6-2.1c0.1-1.6-0.2-2.9-2.2-3c-1.6-0.1-3.3-0.2-4.9-0.6c-1.2-0.2-2.3-0.8-3.5-1.2
			c0-0.4,0.1-0.8,0.1-1.3c1.4-0.2,2.8-0.5,4.3-0.5c1.4,0,2.8,0.6,4.1,0.2c0.9-0.3,1.9-1.6,2-2.5c0.1-0.7-1-2-1.8-2.2
			c-1.9-0.6-4-0.6-5.9-1.1C251.1,191.5,250.6,190.6,250,190.1z M318.3,186.1c0,7.1,0,13.2,0,19.3c0,0.4-0.1,0.9,0.1,1.1
			c0.9,0.6,1.8,1.4,2.7,1.4c1.3,0.1,3.3,0.3,3.2-1.9c-0.1-3.1,1.5-4.2,4.4-4.2c0.9,0,1.8-0.2,2.7-0.4c3.5-0.7,5.6-3.6,5.6-7.4
			c0-4.2-2.2-7.5-5.8-7.8C326.8,185.8,322.4,186.1,318.3,186.1z M226.6,192.2c-0.6-1.5-1-2.3-1.1-3.1c-0.6-2.9-1-5.8-1.8-8.6
			c-0.4-1.7-3.5-2.9-5.3-2.2c-2,0.7-1.2,2.4-0.9,3.8c1.1,5.1,2.3,10.2,3.4,15.3c0.4,2,1,3.7,3.4,4c2.5,0.3,4.5-0.1,5.8-2.5
			c0.9-1.6,2-3,3-4.6c1.9-3,3.8-6.1,5.5-9.2c1.3-2.4,0.7-3.4-2-3.9c-2.2-0.4-3.9,0.2-5,2.4C230.1,186.2,228.5,188.8,226.6,192.2z
			 M428.7,175.8c1.4,4.3,2.7,8.3,4,12.3c0.7,2.1,2.2,2.4,4.1,1.8c2.1-0.6,2.6-1.9,2-3.8c-0.9-2.9-1.6-5.8-2.6-8.7
			c-1-2.7-0.8-4.4,2.3-5.4c0.8-0.3,1.5-2.3,1.4-3.5c-0.1-0.7-2-1.8-2.8-1.6c-4.6,1.2-9.2,2.6-13.6,4.3c-0.8,0.3-1.4,2.1-1.4,3.2
			c0,1.8,1.5,2,3,1.8C426.1,176.2,427.2,176,428.7,175.8z M274.2,201.6c-0.1-0.8-0.2-1.2-0.2-1.5c0.2-3.9,0.3-7.9,0.5-11.8
			c0.1-2.4-1.3-3.2-3.4-3.2c-2,0-3,1-3.1,3c-0.2,5.3-0.5,10.6-0.8,16c-0.1,1.8,0.6,2.8,2.4,2.9c3.8,0.2,7.5,0.4,11.3,0.7
			c2.1,0.1,2.7-1.1,2.8-2.9c0.1-1.9-0.8-2.6-2.7-2.6C278.8,202,276.5,201.7,274.2,201.6z M334.3,133.3c0,3.1-0.1,6.1,0,9
			c0.1,2.5,0.7,5,3.3,5.9c3.2,1.1,6.6,1.4,9.4-0.9c0.8-0.7,1.4-2,1.5-3.1c0.3-2.9,0.4-5.9,0.5-8.8c0.1-1.5-0.3-2.4-2.1-2.4
			c-1.8,0-2.5,0.8-2.5,2.5c0,1.8,0.2,3.8-0.2,5.5c-0.3,1.3-1.6,2.4-2.4,3.6c-1-1.2-2.4-2.2-2.9-3.5c-0.5-1.3-0.1-2.9-0.1-4.4
			C338.9,133,338.5,132.7,334.3,133.3z M358.2,137.8c0.1-0.3,0.2-0.6,0.3-1c1,0,2,0.2,2.9-0.1c0.9-0.3,1.6-1.2,2.3-1.8
			c-0.6-0.7-1.2-1.8-1.9-1.9c-1.8-0.3-3.6-0.2-5.5-0.1c-2.4,0.2-3.5,1.8-3.7,4c-0.2,2.3,0.5,4.2,3.1,4.8c1.4,0.4,2.8,0.7,4.2,1.1
			c0.3,0.1,0.5,0.6,0.8,0.9c-0.3,0.3-0.6,0.7-0.9,0.7c-1.3,0-2.6-0.4-3.8-0.2c-1.1,0.1-2.1,0.8-3.1,1.2c0.7,0.9,1.2,2.5,2,2.7
			c2,0.4,4.2,0.5,6.2,0.3c3.2-0.4,4.4-1.8,4.5-4.5c0.1-2.7-1-4-4.2-4.9C360.4,138.7,359.3,138.2,358.2,137.8z M244,148.4
			c2.9,0,5.3,0.2,7.7-0.1c1.4-0.1,4,1.3,4-1.7c0-3.1-2.6-2-4.1-1.9c-2.4,0.1-3.1-1-3-3.1c0.1-2.2,0.2-4.4-0.1-6.6
			c-0.1-0.8-1.4-1.8-2.3-1.9c-0.6-0.1-2,1.1-2.1,1.7C244,139.2,244,143.6,244,148.4z M235.3,133.1c0,5.1,0,10.1,0,15.2
			c1.6,0,2.8,0,4.2,0c0-5.1,0-10.1,0-15.2C238,133.1,236.7,133.1,235.3,133.1z M128.1,150.7c-2.8,0-4.2,1.3-4.2,3.9
			c0,2.5,1.4,4,3.8,4.1c2.6,0.1,4.2-1.4,4.3-3.8C132.1,152.1,130.8,150.7,128.1,150.7z M478.9,154.9c0.1-2.8-1.1-4.2-3.8-4.2
			c-2.7-0.1-4.2,1.3-4.3,3.8c0,2.6,1.5,4.1,4,4.2C477.4,158.7,478.9,157.4,478.9,154.9z"/>
		<path d="M216.1,97.8c-2,1.7-3.7,3.2-5.4,4.6c-4.8,3.9-10.1,6.2-16.5,5.2c-3.9-0.6-7-2.3-9-5.7c-1.3-2.1-2.3-2.1-4.1-0.6
			c-3.7,3.2-7.8,5.7-12.9,6.3c-14.6,1.6-24.9-8.4-23.7-23.1c1.4-18,6.4-35,14.9-50.9c3.9-7.3,8.3-14.3,15-19.5
			c4.6-3.6,9.9-5.1,15.5-2.9c6,2.4,8.2,8.5,6.1,16.1C193,37,188,45.7,182.2,53.9c-5.4,7.5-11.4,14.6-17.4,21.7
			c-4.2,4.9-4.7,15.1-0.3,19.9c2.7,3,6,3.7,9.4,1.6c5.2-3.1,8.9-7.1,10.3-13.5c2.6-11.8,8.9-21.4,19.3-28.1c7-4.5,19.5-4.3,25.8,1.8
			c1.2,1.2,3.2,1.6,4.9,2.1c4.5,1.3,6.1,3.3,5.1,7.9c-0.9,4.1-2.6,8-3.8,12.1c-1.3,4.4-2.6,8.8-3.5,13.3c-0.9,5,2.9,6.9,6.8,4.7
			c4.2-2.4,8-5.1,8.6-10.6c0.5-4.5,4.3-6.5,8.1-7.8c3.5-1.2,5.7-3.4,7.6-6.3c3.9-5.9,7.9-11.8,12.1-17.4c2.3-3.1,5.3-5.4,9.6-4.9
			c4.5,0.5,7.1,4.3,5,8.2c-2.8,5.2-2.3,10.2-0.5,15.4c1.8,5,4,9.9,3.4,15.5c-0.2,1.7-0.4,3.5-0.6,5.2c-0.1,0.8,0,1.5,0,2.3
			c0.9-0.1,1.9,0,2.5-0.4c6-3.6,11.3-7.4,12.4-15.3c1.2-7.9,3.8-15.5,5.9-23.2c0.5-2,1.1-3.8-1.8-4.4c-0.5-0.1-1.2-1.2-1-1.6
			c0.5-1.3,1.2-3.4,2.1-3.5c4.5-0.7,5.4-4.2,6.7-7.5c1.5-3.7,3.1-7.4,5-11c1.6-3.2,3.7-4.1,7.1-2.7c2.3,0.9,4.5,2.4,6.4,4.1
			c1.7,1.4,2.2,3.6,1.4,5.8c-0.9,2.6-1.8,5.2-2.7,7.8c-0.7,1.9,0,2.8,1.9,2.8c1,0,2,0,3,0c1.5,0,3.2-0.3,3.5,1.7
			c0.3,2.1-1,3.6-2.9,4.2c-1.6,0.5-3.5,0.6-5.2,0.5c-2.8-0.1-4.4,1-5.3,3.6c-3.5,10.4-7.2,20.6-8.5,31.6c-0.4,3.3,0.9,5.9,3.5,7.9
			c2.6,1.9,5.2,1.6,7.7,0c4.9-3.2,8.4-6.9,9.9-13.1c2.2-9.3,5.7-18.4,8.8-27.5c1.3-3.7,3.3-4.4,7.2-3.4c6.7,1.8,9.4,6.2,7.6,12.8
			c-1.8,6.6-4,13-5.8,19.5c-0.7,2.4-0.9,4.9-0.9,7.3c0,4.8,3.4,6.8,7.6,4.6c4.1-2,7.4-5.1,9.4-9c1.2-2.2,1.3-5.1,1.7-7.7
			c2.1-13.6,13.6-25.6,27.1-27.9c4.8-0.8,9.5-0.2,13.7,2.6c5.6,3.8,7.1,11.4,3.4,17.1c-1.8,2.8-4.2,4.2-7.6,3.8
			c-2.4-0.3-4.4-1-5.2-3.4c-0.8-2.3-0.6-4.5,1-6.5c0.5-0.6,1.4-1.1,1.7-1.8c0.5-1,1.3-3,1-3.2c-1.1-0.8-3.1-1.9-4-1.5
			c-2.9,1.7-5.8,3.6-7.9,6.1c-4,4.8-5.8,10.8-6.5,17c-0.9,8.4,3.9,15.1,12.3,16c3.1,0.4,6.8-0.8,9.7-2.2c3.2-1.5,5.9-4.1,8.6-6.3
			c2.5-2,2.6-5.1,3.5-7.9c2.8-8.9,5.6-17.7,8.6-26.4c1.2-3.6,3.2-4.3,7-3.3c6.9,1.8,9.6,6.1,7.7,13c-1.8,6.6-4,13-5.8,19.5
			c-0.7,2.4-1,5.1-0.9,7.6c0.1,4.4,3.5,6.4,7.4,4.3c6.2-3.3,10-8.1,11.1-15.6c1.2-7.9,3.8-15.7,5.9-23.5c0.6-2.1,1.4-4-1.8-4.9
			c-1.7-0.4-1.2-4.4,1-4.8c5.8-1.2,6.1-6.2,8-10.2c1.3-2.8,2.5-5.7,3.9-8.5c1.7-3.3,3.8-4.2,7.3-2.8c2.2,0.9,4.4,2.3,6.2,3.9
			c1.8,1.5,2.3,3.7,1.5,6.1c-0.9,2.5-1.7,5-2.6,7.5c-0.8,2.1,0,2.9,2.1,2.9c0.9,0,1.8,0,2.8,0c1.5,0,3.5-0.3,3.6,1.9
			c0.1,2.1-1.1,3.7-3.3,4.1c-1.7,0.3-3.5,0.4-5.2,0.4c-2.5-0.1-4,1-4.8,3.3c-3.6,10.5-7.4,21-8.6,32.1c-0.4,3.3,1,5.9,3.7,7.8
			c2.5,1.8,5,1.5,7.5-0.1c5.4-3.5,9.5-7.8,11.2-14.6c2.1-8.6,5.1-17.1,8-25.5c1.5-4.3,4.2-5.6,8.4-3.7c7.1,3.3,8.4,5.8,6.5,12.4
			c-2.1,7.3-4.7,14.5-6.9,21.8c-0.6,2.2-0.9,4.5-0.9,6.8c0,3.9,2.7,5.4,6.1,3.5c5.6-3.1,9-8.1,11.1-13.9c3-8.6,5.7-17.3,8.3-26
			c1.7-5.5,4.5-6.8,9.6-4.1c5.6,2.9,7,5.7,5.5,11.9c-2.5,10.3-5.3,20.6-7.9,30.9c-0.3,1.3-0.5,2.6-0.8,3.8c0.3,0.2,0.5,0.4,0.8,0.6
			c1.6-1.1,3.4-2,4.8-3.2c3.2-3,6.3-6.1,9.5-9.2c0.5-0.5,1-1.1,1.4-1.7c1.5-1.7,3.4-2.8,5.3-1.4c2,1.5,1.3,3.8,0,5.4
			c-2.9,3.5-5.9,7.1-9.4,10c-3.7,3.1-7.9,5.7-12,8.2c-2.3,1.4-3.9,3.2-4.6,5.8c-2.1,7.6-5.1,14.9-9.6,21.5
			c-6.6,9.8-18.5,11.3-26.6,7.4c-8.1-4-9.5-14.4-2.8-20.5c5.2-4.8,11.6-8,18.2-10.1c6.2-1.9,7.8-6.1,8.4-11.5c0-0.2-0.2-0.5-0.5-1.2
			c-0.9,0.5-1.7,1-2.4,1.5c-5.1,3.9-10.6,6.5-17.3,5.5c-3.9-0.6-6.9-2.4-9.3-5.4c-0.7-0.9-1.5-1.9-2.4-3
			c-12.5,11.4-24.7,12.2-36.8-0.6c-1.5,1.2-3,2.4-4.4,3.7c-6.4,5.5-13.7,6.8-21.6,4.7c-3.7-1-6.7-3-8.5-6.5c-1-2-2.1-2-3.6-0.7
			c-6.1,4.8-12.9,7.8-20.7,8.1c-9.4,0.4-18.3-0.9-24.5-9.1c-1.2-1.5-2-1.3-3.3-0.1c-2.1,2-4.3,4.1-6.7,5.7c-6.2,4.2-13.1,4.7-20,2.1
			c-2.6-1-4.9-3.2-6.8-5.2c-1.4-1.5-2.1-1.7-3.7-0.3c-4,3.6-8.5,6.4-14.1,6.9c-7.6,0.6-14-1.8-18.8-7.7c-1.8-2.3-2.9-2.2-5.1-0.6
			c-11.3,8.2-24,10.7-37.6,8.6c-5.2-0.8-9.6-3.7-13.2-7.5c-2.1-2.3-3.3-1.9-5.4-0.1c-2.3,2-4.9,3.9-7.6,5.4
			c-4.6,2.5-9.7,2.6-14.7,1.3c-3.6-0.9-6.1-3.2-7.7-6.6C217,99.7,216.6,98.9,216.1,97.8z M200,90.3c0,0.6-0.2,1.2,0,1.6
			c0.7,1.6,1.3,3.9,2.5,4.4c1.2,0.5,3.2-0.7,4.9-1.2c0.2-0.1,0.4-0.4,0.6-0.5c7.1-6.9,11.5-15.3,13.9-24.8c0.4-1.6,0.4-3.5,0-5.2
			c-1.1-4-4.9-5-8.4-2C205,69.8,201.6,79.7,200,90.3z M272.4,72.2c-0.4-0.1-0.9-0.2-1.3-0.3c-2.8,5-6.4,9.7-8.3,15.1
			c-1.6,4.4-0.3,9.3,2.8,13.3c2,2.6,4.3,2.8,6.6,0.4c1.5-1.6,2.9-3.7,3.5-5.7C277.9,86.8,273.3,79.8,272.4,72.2z M166.1,64.3
			c0.2,0.1,0.5,0.2,0.7,0.3c0.6-0.7,1.3-1.4,1.9-2.1c7-8.8,12.4-18.5,16.9-28.6c1.5-3.3,2.5-6.9,3.5-10.4c0.2-0.8-0.4-1.8-0.6-2.7
			c-0.9,0.3-2,0.3-2.7,0.8c-1.2,1.1-2.3,2.4-3.2,3.8c-7.7,11.4-12.4,24.1-16.4,37.1C166.1,63,166.1,63.7,166.1,64.3z M516.5,138
			c0.4-0.2,1.3-0.5,2.1-1c5-3.3,7.2-8.6,9.4-13.9c0.1-0.3,0-1.1-0.2-1.2c-0.4-0.2-1.1-0.2-1.5,0.1c-2.2,1.6-4.6,3.1-6.5,5
			c-2.1,2-4,4.3-5.6,6.7C512.7,135.8,513.9,137.9,516.5,138z"/>
		<path d="M101.7,6.2c10.6,0,20.8,1.7,30.4,6.6c20,10.2,19.9,33.1,8.2,45.6c-10.1,10.8-22.7,15.9-37.6,14.8
			c-1.1-0.1-2.3-0.2-3.2-0.8c-0.9-0.7-1.8-1.9-1.9-2.9c-0.1-0.6,1.5-1.8,2.4-1.9c6.1-0.7,11.6-2.8,16.4-6.5
			c7.5-5.7,11.8-13.3,12.8-22.6c1-8.8-4.4-17.6-12.9-21.1c-10.4-4.3-21-3.4-31.6-0.7c-6.7,1.7-12.5,4.8-17.1,10.1
			c-4.6,5.3-7.3,11.3-5.7,18.4c0.5,2.2,2.2,4.2,3.4,6.2c0.6,1,1.6,1.8,2.2,2.8c1,1.9,0.1,3.5-2,3.7c-7.1,0.8-17.5-4.5-20.7-10.8
			c-3-5.9-1.9-11.8,0.9-17.4c3-5.9,7.9-9.9,13.5-13.1C69,11,79.4,8.1,90.4,7C94.2,6.7,97.9,6.5,101.7,6.2z"/>
		<path d="M26.1,82.8c-0.4-3.1,0.9-5.8,3.1-8.1C35,68.9,41.8,65,50.3,65c0.9,0,2.6,0.7,2.6,1.2c0.1,1.2-0.1,2.8-0.9,3.7
			c-2.1,2.4-4.8,4.3-6.7,6.9c-7.6,9.8-1.8,18.2,5.5,21.1c3.5,1.4,6.5,0.5,9.3-1.6c4.8-3.6,7.8-8.7,9.6-14.2
			c3.6-11.2,6.6-22.5,10-33.8c1.3-4.3,2.7-8.6,4.2-12.8c3-8.8,9.9-12.9,18.5-14.5c1.9-0.3,4.9-0.6,5.8,0.5c1.7,2-0.8,3.9-2,5.7
			c-6.1,8.5-8.6,18.4-11.2,28.3c-2.5,9.6-4.9,19.2-7.8,28.7c-1.2,3.8-3.2,7.4-5.2,10.9c-4.9,8.5-12.4,12.9-22.2,13
			c-11.9,0.2-22-3.9-29.5-13.3C27.7,91.2,25.8,87.5,26.1,82.8z"/>
		<path d="M301.6,152.1c-1.3-0.5-2.6-0.8-3.6-1.4c-4.7-2.7-9.3-5.5-13.9-8.4c-3.1-1.9-3.1-3.7,0.1-5.7c4.2-2.6,8.5-5.1,12.7-7.7
			c3.1-2,6-2.1,9.2,0c4.2,2.8,8.7,5.2,12.9,7.9c3.2,2,3.1,3.7-0.1,5.6c-4.5,2.8-9.1,5.5-13.7,8.2
			C304.1,151.3,302.8,151.6,301.6,152.1z M300.1,139.5c0-1.7,0-3.5,0-5.2c0-2-1-2.5-2.6-1.6c-3.1,1.8-6.1,3.7-9.2,5.5
			c-1.3,0.8-1.4,1.7-0.1,2.5c3.1,1.9,6.2,3.9,9.3,5.7c1.7,1,2.5,0.2,2.5-1.7C300.1,143,300.1,141.3,300.1,139.5z"/>
		<path d="M360.7,194.4c-1.7,1.7-3.1,4-4.9,4.3c-1.7,0.3-3.8-1.5-6.1-2.6c0.2,2.4,0.4,4.7,0.5,7c0.1,2.9-1.2,4.1-4,3.5
			c-0.8-0.2-1.8-1.3-1.9-2.1c-0.7-4.9-1.3-9.8-1.6-14.8c-0.1-1.4,0.2-3.8,1-4.2c2.3-1.1,5-1.3,7.1,0.9c1.2,1.3,2.1,2.7,3.5,4.5
			c1.5-2,2.5-3.1,3.2-4.4c1.5-2.9,4-3.6,7-3.3c0.7,0.1,1.8,0.9,1.9,1.5c0.8,5.9,1.4,11.8,2,17.8c0.1,1.3-0.5,2.3-2.1,2.2
			c-1.6-0.1-3.7,0.7-4.1-2c-0.2-1.8-0.4-3.7-0.6-5.5C361.2,196.3,361,195.4,360.7,194.4z"/>
		<path d="M405.7,189.3c0.3,1.8,0.6,3.5,1,5.3c0.5,2.1-0.1,3.4-2.2,3.9c-2.1,0.5-3.6,0.1-4.2-2.2c-1.2-5.2-2.4-10.3-3.5-15.5
			c-0.5-2.3,0.6-3.8,3-3.5c1.8,0.2,3.7,0.9,5.2,1.9c2.1,1.3,4,3,6,4.5c0.2-0.2,0.5-0.3,0.7-0.5c-0.3-1.7-0.7-3.3-1-5
			c-0.3-2-0.6-3.9,2.3-4.3c2.9-0.4,3.5,0,4.2,3.1c1,4.4,2.2,8.7,3,13.1c0.3,1.5,0.2,3.7-0.7,4.5c-1.7,1.5-4,1.1-5.8-0.4
			c-1.6-1.2-3.1-2.6-4.7-3.8c-0.7-0.6-1.6-1.1-2.4-1.6C406.3,188.9,406,189.1,405.7,189.3z"/>
		<path d="M299.8,208.7c-11-0.1-12.8-6.8-11.7-14.6c0.6-4,3.7-7.1,7.8-7.4c3.3-0.3,6.8-0.2,10,0.6c3.7,1,5.5,4.1,5.8,7.9
			c0.1,1.9,0.2,3.9-0.2,5.8C310.3,206.2,306.3,208.8,299.8,208.7z M305.2,197.2c-0.1-2.5-3.1-5.7-5.5-5.7c-2.6,0-5.7,3.2-5.6,5.8
			c0,2.7,3.4,5.9,6,5.8C302.6,203,305.3,199.9,305.2,197.2z"/>
		<path d="M175.5,189.8c-2-0.6-5.7-1.4-9.2-2.7c-0.8-0.3-1.6-2.5-1.4-3.5c1.4-5.1,3.1-10.2,4.7-15.3c0.6-1.8,1.9-2.5,3.7-1.9
			c2.8,0.8,5.7,1.6,8.4,2.7c5.3,2.2,7,6.6,5.5,13.3C186.2,186.9,182.2,189.8,175.5,189.8z M172.2,182.8c0.9,0.4,1.5,0.7,2.2,0.9
			c3,0.8,6-1.1,6.8-4.4c0.6-2.5-1.5-5.6-4.4-5.9c-0.7-0.1-1.9,0.4-2.1,1C173.8,177.1,173.1,180,172.2,182.8z"/>
		<path d="M361.9,33.1c0-7,3.6-12.2,9.1-13.6c5.1-1.3,8.9,1,9.4,6.2c0.5,5.5-1,10.4-5.7,13.8c-2.9,2-6.2,2.3-9.4,0.7
			C362.3,38.7,361.6,35.8,361.9,33.1z"/>
		<path d="M448.1,33c0-6.9,3.5-12,8.8-13.5c5.3-1.4,9.1,0.8,9.6,6.2c0.5,5.5-1,10.4-5.7,13.7c-2.9,2-6.2,2.3-9.4,0.7
			C448.4,38.7,447.8,35.8,448.1,33z"/>
		<path d="M200.8,181.2c0.7,0.6,1.3,1.4,2.2,1.7c1.3,0.5,2.7,0.6,4,0.9c1.8,0.4,2.8,1.4,2.3,3.3c-0.4,1.9-1.7,2.2-3.4,1.9
			c-1.7-0.3-3.4-0.8-5.1-1c-0.6-0.1-1.2,0.5-1.8,0.8c0.4,0.5,0.7,1.4,1.3,1.6c1.9,0.6,3.8,1.2,5.8,1.6c2,0.4,2.5,1.6,2.3,3.4
			c-0.3,2-1.8,2.3-3.3,2c-4.1-0.8-8.2-1.7-12.3-2.8c-2.3-0.6-1.6-2.7-1.3-4.2c0.7-3.4,1.7-6.7,2.5-10.1c1.8-8.1,1.2-7.7,9.5-5.8
			c2.1,0.5,4.3,1.1,6.4,1.5c1.8,0.4,2,1.5,1.9,3.1c-0.2,1.7-1.1,2.5-2.7,2.3c-1.4-0.1-2.7-0.5-4-0.7c-1.2-0.2-2.5-0.3-3.7-0.5
			C201.1,180.6,201,180.9,200.8,181.2z"/>
		<path d="M380.6,187.9c1,0.2,2,0.7,3,0.7c1.4-0.1,2.7-0.6,4-0.8c1.4-0.1,2.8,0.1,3,2c0.3,1.8-0.2,3-2.2,3.3c-1.4,0.2-2.8,0.2-4,0.7
			c-1,0.4-1.9,1.2-2.8,1.9c0.1,0.3,0.2,0.7,0.4,1c1.8-0.1,3.5-0.2,5.3-0.4c1.2-0.1,2.4-0.3,3.5-0.5c1.7-0.2,2.5,0.8,2.4,2.2
			c-0.1,1-0.9,2.6-1.7,2.8c-4.3,1-8.6,1.6-12.9,2.3c-1.8,0.3-2.4-0.8-2.7-2.3c-0.8-5.2-1.6-10.3-2.5-15.4c-0.4-2.3,0.3-3.6,2.9-3.9
			c3.5-0.4,7-1.1,10.6-1.8c1.7-0.3,3,0.1,3.3,2c0.3,1.7-0.1,3.1-2.2,3.3c-1.5,0.2-3.1,0.5-4.6,0.9c-0.9,0.2-1.7,0.7-2.6,1
			C380.6,187.3,380.6,187.6,380.6,187.9z"/>
		<path d="M250,190.1c0.6,0.5,1.1,1.3,1.8,1.5c1.9,0.5,4,0.5,5.9,1.1c0.8,0.2,1.9,1.6,1.8,2.2c-0.1,1-1.1,2.3-2,2.5
			c-1.2,0.4-2.7-0.2-4.1-0.2c-1.4,0-2.8,0.4-4.3,0.5c0,0.4-0.1,0.8-0.1,1.3c1.2,0.4,2.3,1,3.5,1.2c1.6,0.3,3.3,0.5,4.9,0.6
			c2.1,0.1,2.3,1.4,2.2,3c-0.1,1.7-1.1,2.2-2.6,2.1c-4.3-0.4-8.6-0.7-12.8-1.3c-0.7-0.1-1.8-1.3-1.7-1.9c0.5-6,1.1-12,1.9-18
			c0.1-0.6,1.3-1.5,1.9-1.4c4.5,0.3,9,0.7,13.4,1.3c0.6,0.1,1.3,1.8,1.4,2.7c0,1.7-1,2.7-2.9,2.5c-2.5-0.2-5.1-0.5-7.6-0.7
			C250.4,189.4,250.2,189.8,250,190.1z"/>
		<path d="M318.3,186.1c4.2,0,8.6-0.3,12.9,0.1c3.6,0.3,5.8,3.6,5.8,7.8c0,3.8-2.2,6.7-5.6,7.4c-0.9,0.2-1.8,0.4-2.7,0.4
			c-2.9,0-4.4,1.1-4.4,4.2c0,2.2-1.9,2-3.2,1.9c-0.9-0.1-1.9-0.9-2.7-1.4c-0.2-0.1-0.1-0.7-0.1-1.1
			C318.3,199.3,318.3,193.2,318.3,186.1z M326.2,197.6c1.7-1.6,3.4-2.4,3.7-3.6c0.5-2-1.4-2.5-3-2.5c-1.7-0.1-2.9,0.9-2.7,2.6
			C324.2,195.1,325.2,196,326.2,197.6z"/>
		<path d="M226.6,192.2c1.9-3.4,3.5-6,4.9-8.7c1.1-2.1,2.8-2.7,5-2.4c2.7,0.4,3.4,1.5,2,3.9c-1.7,3.1-3.7,6.1-5.5,9.2
			c-1,1.6-2.1,3-3,4.6c-1.3,2.4-3.3,2.9-5.8,2.5c-2.4-0.3-3-2-3.4-4c-1.1-5.1-2.3-10.2-3.4-15.3c-0.3-1.3-1.1-3,0.9-3.8
			c1.8-0.7,4.9,0.5,5.3,2.2c0.7,2.8,1.2,5.7,1.8,8.6C225.6,189.9,226,190.7,226.6,192.2z"/>
		<path d="M428.7,175.8c-1.5,0.2-2.5,0.4-3.6,0.5c-1.5,0.2-3,0-3-1.8c0-1.1,0.6-2.9,1.4-3.2c4.5-1.7,9-3.1,13.6-4.3
			c0.8-0.2,2.7,1,2.8,1.6c0.1,1.2-0.6,3.2-1.4,3.5c-3.1,1-3.3,2.7-2.3,5.4c1.1,2.8,1.8,5.8,2.6,8.7c0.6,1.9,0.1,3.2-2,3.8
			c-2,0.6-3.5,0.3-4.1-1.8C431.4,184.1,430.1,180.1,428.7,175.8z"/>
		<path d="M274.2,201.6c2.3,0.2,4.6,0.4,6.9,0.4c1.9,0,2.8,0.7,2.7,2.6c-0.1,1.8-0.7,3-2.8,2.9c-3.8-0.2-7.5-0.4-11.3-0.7
			c-1.8-0.1-2.5-1-2.4-2.9c0.3-5.3,0.5-10.6,0.8-16c0.1-2,1-3.1,3.1-3c2.1,0,3.5,0.8,3.4,3.2c-0.2,3.9-0.3,7.9-0.5,11.8
			C274,200.4,274.1,200.8,274.2,201.6z"/>
		<path d="M334.3,133.3c4.1-0.6,4.5-0.3,4.5,3.4c0,1.5-0.4,3.1,0.1,4.4c0.5,1.3,1.9,2.4,2.9,3.5c0.8-1.2,2.1-2.3,2.4-3.6
			c0.4-1.7,0.2-3.7,0.2-5.5c0-1.7,0.7-2.5,2.5-2.5c1.8,0,2.2,0.9,2.1,2.4c-0.2,2.9-0.2,5.9-0.5,8.8c-0.1,1.1-0.7,2.4-1.5,3.1
			c-2.9,2.3-6.2,2.1-9.4,0.9c-2.6-0.9-3.2-3.5-3.3-5.9C334.2,139.3,334.3,136.4,334.3,133.3z"/>
		<path d="M358.2,137.8c1.1,0.4,2.2,0.9,3.3,1.2c3.1,0.9,4.3,2.2,4.2,4.9c-0.1,2.7-1.3,4.1-4.5,4.5c-2,0.3-4.2,0.2-6.2-0.3
			c-0.8-0.2-1.4-1.7-2-2.7c1-0.4,2-1.1,3.1-1.2c1.2-0.2,2.5,0.2,3.8,0.2c0.3,0,0.6-0.5,0.9-0.7c-0.3-0.3-0.5-0.8-0.8-0.9
			c-1.4-0.4-2.8-0.7-4.2-1.1c-2.5-0.6-3.3-2.5-3.1-4.8c0.2-2.2,1.3-3.9,3.7-4c1.8-0.1,3.7-0.2,5.5,0.1c0.7,0.1,1.3,1.2,1.9,1.9
			c-0.8,0.6-1.5,1.5-2.3,1.8c-0.9,0.3-1.9,0.1-2.9,0.1C358.5,137.1,358.4,137.4,358.2,137.8z"/>
		<path d="M244,148.4c0-4.8-0.1-9.2,0.1-13.6c0-0.6,1.4-1.8,2.1-1.7c0.9,0.1,2.1,1.1,2.3,1.9c0.3,2.2,0.2,4.4,0.1,6.6
			c-0.1,2.1,0.7,3.2,3,3.1c1.5,0,4.2-1.2,4.1,1.9c0,3-2.6,1.6-4,1.7C249.4,148.6,247,148.4,244,148.4z"/>
		<path d="M235.3,133.1c1.4,0,2.7,0,4.2,0c0,5,0,10,0,15.2c-1.4,0-2.6,0-4.2,0C235.3,143.2,235.3,138.2,235.3,133.1z"/>
		<path d="M128.1,150.7c2.7,0,4,1.4,3.9,4.1c0,2.5-1.7,4-4.3,3.8c-2.4-0.1-3.8-1.6-3.8-4.1C123.9,151.9,125.4,150.6,128.1,150.7z"/>
		<path d="M478.9,154.9c-0.1,2.5-1.5,3.8-4,3.8c-2.6-0.1-4.1-1.6-4-4.2c0-2.5,1.5-3.9,4.3-3.8C477.8,150.7,479,152.1,478.9,154.9z"
			/>
		<path class="st0" d="M200,90.3c1.6-10.7,4.9-20.5,13.5-27.7c3.6-3,7.3-2.1,8.4,2c0.4,1.6,0.4,3.5,0,5.2
			c-2.4,9.5-6.8,17.9-13.9,24.8c-0.2,0.2-0.4,0.5-0.6,0.5c-1.7,0.5-3.7,1.7-4.9,1.2c-1.2-0.5-1.8-2.8-2.5-4.4
			C199.9,91.5,200,90.9,200,90.3z"/>
		<path class="st0" d="M272.4,72.2c0.9,7.6,5.6,14.6,3.3,22.7c-0.6,2.1-2,4.1-3.5,5.7c-2.2,2.4-4.5,2.2-6.6-0.4
			c-3.1-3.9-4.4-8.9-2.8-13.3c1.9-5.3,5.4-10.1,8.3-15.1C271.5,72,271.9,72.1,272.4,72.2z"/>
		<path class="st0" d="M166.1,64.3c0-0.6,0-1.3,0.1-1.9c4-13,8.7-25.7,16.4-37.1c0.9-1.4,2-2.7,3.2-3.8c0.6-0.6,1.8-0.6,2.7-0.8
			c0.2,0.9,0.8,2,0.6,2.7c-1,3.5-2,7.1-3.5,10.4c-4.5,10.2-9.9,19.9-16.9,28.6c-0.6,0.7-1.3,1.4-1.9,2.1
			C166.5,64.5,166.3,64.4,166.1,64.3z"/>
		<path class="st0" d="M516.5,138c-2.6-0.1-3.8-2.2-2.4-4.3c1.6-2.4,3.5-4.7,5.6-6.7c2-1.9,4.3-3.4,6.5-5c0.3-0.2,1-0.2,1.5-0.1
			c0.2,0.1,0.4,0.9,0.2,1.2c-2.2,5.3-4.4,10.5-9.4,13.9C517.8,137.5,516.9,137.8,516.5,138z"/>
		<path class="st0" d="M300.1,139.5c0,1.7,0,3.5,0,5.2c0,1.9-0.8,2.7-2.5,1.7c-3.2-1.8-6.3-3.8-9.3-5.7c-1.3-0.8-1.3-1.7,0.1-2.5
			c3.1-1.8,6.1-3.7,9.2-5.5c1.7-1,2.6-0.4,2.6,1.6C300.1,136,300.1,137.8,300.1,139.5z"/>
		<path class="st0" d="M305.2,197.2c0.1,2.7-2.6,5.8-5.1,5.9c-2.7,0.1-6-3-6-5.8c0-2.6,3.1-5.8,5.6-5.8
			C302.1,191.5,305.1,194.7,305.2,197.2z"/>
		<path class="st0" d="M172.2,182.8c0.8-2.9,1.5-5.7,2.5-8.4c0.2-0.5,1.4-1.1,2.1-1c2.8,0.4,5,3.4,4.4,5.9c-0.8,3.3-3.8,5.3-6.8,4.4
			C173.8,183.6,173.1,183.2,172.2,182.8z"/>
		<path class="st0" d="M326.2,197.6c-1-1.7-1.9-2.5-2-3.5c-0.2-1.7,1-2.7,2.7-2.6c1.6,0.1,3.5,0.6,3,2.5
			C329.6,195.2,327.9,196.1,326.2,197.6z"/>
	</g>
</g>
</svg>
