<?xml version="1.0" encoding="utf-8"?>
<!-- Generator: Adobe Illustrator 19.0.0, SVG Export Plug-In . SVG Version: 6.00 Build 0)  -->
<svg version="1.1" id="Layer_1" xmlns="http://www.w3.org/2000/svg" xmlns:xlink="http://www.w3.org/1999/xlink" x="0px" y="0px"
	 viewBox="0 0 960 960" style="enable-background:new 0 0 960 960;" xml:space="preserve">
<style type="text/css">
	.st0{fill:none;}
	.st1{fill:#FED136;}
</style>
<g>
	<path class="st0" d="M25.6,14.6c310.9,0,621.9,0,932.8,0c0,310.9,0,621.9,0,932.8c-310.9,0-621.9,0-932.8,0
		C25.6,636.5,25.6,325.5,25.6,14.6z M948.9,480.4c0.3,0,0.7,0,1-0.1c-1.1-20.2-1.5-40.6-3.6-60.7c-1.8-17.2-4.6-34.5-8.5-51.3
		c-9-38-22.9-74.2-41.6-108.5c-16.4-30-35.7-58-59-83c-19.2-20.6-39-40.8-61.3-58.4c-22.4-17.8-46-33.5-71.3-46.6
		C671.1,54.2,636,40.4,598.6,33.3c-22.3-4.3-44.8-9.3-67.3-9.9c-39.1-1-78.6-3.4-117.4,4.2c-19.4,3.8-38.9,7.6-57.9,12.8
		c-33.6,9.3-65.3,23.4-95.4,40.9c-26.4,15.3-51,33.1-73.4,53.8c-15.9,14.7-30.9,30.5-45.5,46.6c-10.7,11.9-20.5,24.8-29.9,37.8
		c-19.4,26.9-34.7,56.1-47.2,86.8c-17.4,43-28.3,87.7-30.3,133.9c-1.4,33.4-2.7,67,1.9,100.4c2.4,17.4,4.7,34.9,8.7,51.9
		c9,38.2,23,74.5,41.9,109c16.4,29.8,35.6,57.7,58.7,82.5c19.2,20.6,39,40.8,61.2,58.4c22.4,17.8,46,33.5,71.3,46.6
		c33.6,17.5,68.9,30.5,106,38.7c27.8,6.1,55.8,10.3,84.3,10.1c33.6-0.3,67.3,2.2,100.5-4.7c20.9-4.3,41.8-8.3,62.3-14.2
		c34.8-9.9,67.4-25.2,98.4-44c23.6-14.3,46-30.5,66-49.4c26.3-24.9,52-50.5,72.9-80.5c19.4-27.8,36.6-56.9,48.6-88.7
		c8.6-22.9,15.9-46.5,21.9-70.2c6.3-24.7,9.4-50,9.8-75.6C949.1,500.6,948.9,490.5,948.9,480.4z"/>
	<path class="st1" d="M948.9,480.4c0,10.1,0.1,20.2,0,30.3c-0.4,25.6-3.5,50.9-9.8,75.6c-6.1,23.7-13.3,47.3-21.9,70.2
		c-12,31.7-29.1,60.8-48.6,88.7c-20.9,30-46.6,55.6-72.9,80.5c-20,18.9-42.4,35.1-66,49.4c-31,18.8-63.6,34.1-98.4,44
		c-20.4,5.8-41.4,9.9-62.3,14.2c-33.2,6.9-67,4.4-100.5,4.7c-28.5,0.2-56.5-4-84.3-10.1c-37.1-8.2-72.4-21.2-106-38.7
		c-25.3-13.2-48.9-28.8-71.3-46.6c-22.2-17.7-42-37.8-61.2-58.4c-23.1-24.8-42.3-52.6-58.7-82.5C68,667,54,630.7,45,592.5
		c-4-17-6.3-34.5-8.7-51.9c-4.7-33.3-3.4-67-1.9-100.4c2-46.2,12.9-90.9,30.3-133.9c12.4-30.7,27.7-60,47.2-86.8
		c9.4-13,19.2-25.9,29.9-37.8c14.5-16.1,29.5-31.9,45.5-46.6c22.4-20.7,47-38.5,73.4-53.8c30.2-17.5,61.8-31.7,95.4-40.9
		c19-5.2,38.5-9,57.9-12.8c38.9-7.6,78.3-5.2,117.4-4.2c22.5,0.6,45,5.6,67.3,9.9c37.3,7.2,72.4,20.9,106.1,38.4
		c25.3,13.2,48.9,28.8,71.3,46.6c22.2,17.7,42,37.8,61.3,58.4c23.2,24.9,42.5,53,59,83c18.8,34.4,32.7,70.6,41.6,108.5
		c4,16.8,6.8,34.1,8.5,51.3c2.1,20.1,2.4,40.5,3.6,60.7C949.6,480.4,949.3,480.4,948.9,480.4z M925.1,462.8
		c-5.2-103.8-41.8-196.5-112.8-274C726.4,95.2,618.4,47.2,491.6,46.6c-111-0.5-209.4,37.6-291.5,112.7
		C106.2,245.1,58,353.4,57.6,480.3c-0.4,112,38.4,211.1,114.8,293.6c85.8,92.6,193.3,140.2,319.1,140.3
		c121.9,0,227.2-44.9,312.1-133.3C888.4,692.6,927.5,586.2,925.1,462.8z"/>
	<path class="st0" d="M925.1,462.8c2.4,123.3-36.6,229.7-121.5,318c-85,88.4-190.2,133.3-312.1,133.3
		c-125.8,0-233.3-47.6-319.1-140.3C96,691.4,57.2,592.3,57.6,480.3c0.4-127,48.6-235.2,142.5-321.1
		C282.3,84.2,380.7,46.1,491.6,46.6c126.7,0.6,234.8,48.6,320.6,142.2C883.3,266.3,919.9,359,925.1,462.8z M714.2,231.3
		c10.8,0.6,20.3-2.9,28.8-9.4c13.3-10.2,20-24.2,19.1-40.5c-0.8-15-7.7-27.7-20.6-36.7c-18.4-12.9-41.8-11.5-58.9,3.1
		c-10.3,8.8-15.3,20.2-16.8,33.4c-0.2,1.5-1.8,3.1-3.2,4.1c-5.4,3.6-10.9,7-16.3,10.5c-27.5,17.8-53.9,37-78.1,59.2
		c-19.3,17.6-36,37-47.3,60.6c-8.6,18-10.9,36.6-5.7,56.3c4.9,18.3,16,32.2,28.5,45.4c11,11.7,23.5,22.2,33.1,34.9
		c10.4,13.8,10.4,22.5,2,36.4c-8.5,14-20.4,24.8-32.9,35c-15.3,12.4-31.1,24.2-46.1,37c-10,8.5-13.5,19.3-4.7,30.6
		c7.2,9.2,19.1,11.5,30.1,3.9c12.9-8.9,25.3-18.4,37.5-28.3c18.9-15.2,37.7-30.7,51.1-51.3c5.7-8.8,10.3-18.7,13.1-28.8
		c2.1-7.6,0.8-16.3,0.4-24.5c-0.7-13.9-6.4-26.3-15.2-36.5c-13.4-15.6-28.2-30.1-42.3-45.1c-2.1-2.2-4.3-4.5-5.8-7.1
		c-5.2-8.5-9.2-17.1-6.9-27.9c3.5-16.4,12.5-29.7,23.7-41.1c14.1-14.4,29.2-28.1,45.1-40.5c18.2-14.1,37.7-26.5,56.8-39.5
		c1.5-1,4.5-1.1,6.1-0.2C696.6,229,704.9,232,714.2,231.3z M220.9,766.9c0.9,5.1,1.3,10.3,2.8,15.1c8.4,27.7,44.3,43.2,71.8,24.1
		c12.1-8.4,19.2-19.9,20.5-34.9c0.2-1.8,1.8-4.1,3.4-5.1c24.2-15.7,48.8-30.8,70.7-49.7c14.9-12.9,30.3-25.6,43.7-40
		c17-18.4,31.1-38.9,35.5-64.7c1.9-11.3,1.1-22.1-1.5-32.9c-3.9-16.1-13.3-29.1-24.5-40.9c-12-12.5-24.9-24.3-36-37.6
		c-10.5-12.5-12.9-25.2-1.6-40.9c16-22.2,37.8-38.2,58.5-55.5c7.2-6,15.2-11,22.2-17.2c7.5-6.7,7.9-19.2,1.7-26.7
		c-7.9-9.6-20.1-12.8-28.5-6.3c-21.7,16.8-43.5,33.5-64.1,51.5c-10.7,9.4-19.4,21.3-28.3,32.7c-7.3,9.4-11.2,20.8-12.3,32.5
		c-2.4,25,7,46.2,23.8,64.2c11.9,12.8,24.5,25,36.4,37.8c7.6,8.2,13.7,18,11.5,29.4c-1.7,8.9-5.6,17.9-10.4,25.7
		c-16.3,26.1-39.8,45.2-64,63.4c-16.6,12.5-34.4,23.3-51.6,35.1c-2.8,1.9-4.6,1.4-7.5,0.1c-6.9-2.9-14.2-6.3-21.6-6.8
		C245.7,717.4,220.1,738.8,220.9,766.9z M809.2,476.7c-0.5,0.6-0.8,1.2-1.2,1.5c-24.5,16.5-49,33.1-73.5,49.6
		c-18.5,12.5-37.1,24.9-55.7,37.2c-4.7,3.1-7.1,7.1-7.1,12.9c-0.1,13.2,4.7,25,9.3,36.9c1.5,4,3.7,8,6.3,11.4c4.6,6,7.4,6.2,13.5,2
		c20.8-14.2,41.8-28.1,62.4-42.6c28.6-20.1,57-40.4,85.4-60.8c10.8-7.8,22.1-15.1,32-24.1c19.7-17.9,11.7-45.2-5.1-55.7
		c-11-6.9-21.6-14.4-32.3-21.7c-20-13.7-39.9-27.6-59.8-41.3c-15.2-10.5-30.4-21-45.8-31.3c-11.9-8-24-15.6-36.1-23.3
		c-6.3-4-11.4-3.3-15.1,2.1c-1.7,2.5-3.3,5.3-4.1,8.1c-3,11-5.7,22-8.4,33.1c-2.6,10.7-0.3,16.7,8.8,22.6
		c14.2,9.3,28.4,18.6,42.6,27.9c14,9.2,28.1,18.3,42.1,27.5C781.2,458.1,795.2,467.4,809.2,476.7z M176.2,476.2
		c3.7-2.2,6.6-3.7,9.2-5.5c17.7-12.1,35.2-24.3,52.9-36.2c23.4-15.8,47-31.3,70.5-46.9c4.9-3.3,7.9-10.3,6.7-15.4
		c-1.5-6.3-2.4-12.8-4.6-18.8c-3.4-9-7.4-17.9-11.7-26.5c-1.9-3.8-5.9-5.8-10.3-3.3c-6.3,3.6-12.5,7.3-18.5,11.5
		c-23.7,16.4-47.2,33-70.7,49.7c-29.7,21.1-59.5,42.1-89,63.5c-13.4,9.7-19.1,26.8-13.7,41.5c2,5.6,5.1,12,9.7,15.2
		c31.1,22,62.8,43.3,94.3,64.8c13.9,9.5,27.6,19.2,41.6,28.4c14.8,9.8,29.9,19,44.7,28.8c4.8,3.2,8.3,1.1,11.7-1.8
		c1.7-1.4,3.1-3.6,3.7-5.7c3.7-12.7,7.7-25.4,10.4-38.4c1.7-8.1,0.1-16.2-8.5-20.8c-3.7-2-7-4.6-10.5-6.9
		c-21-13.9-41.9-27.9-63-41.7C213.2,499.9,195.1,488.4,176.2,476.2z"/>
	<path class="st1" d="M714.2,231.3c-9.3,0.6-17.6-2.3-25.7-6.8c-1.6-0.9-4.6-0.8-6.1,0.2c-19.1,12.9-38.6,25.3-56.8,39.5
		c-15.9,12.4-31,26.1-45.1,40.5c-11.2,11.4-20.1,24.7-23.7,41.1c-2.3,10.8,1.7,19.4,6.9,27.9c1.6,2.6,3.7,4.9,5.8,7.1
		c14.1,15,28.9,29.4,42.3,45.1c8.7,10.2,14.5,22.6,15.2,36.5c0.4,8.2,1.7,16.9-0.4,24.5c-2.7,10.1-7.4,20-13.1,28.8
		c-13.3,20.6-32.2,36.1-51.1,51.3c-12.2,9.8-24.6,19.4-37.5,28.3c-11,7.6-22.9,5.3-30.1-3.9c-8.8-11.4-5.3-22.2,4.7-30.6
		c15-12.8,30.8-24.6,46.1-37c12.5-10.2,24.4-21,32.9-35c8.4-13.9,8.4-22.6-2-36.4c-9.6-12.7-22.1-23.2-33.1-34.9
		C531,404.1,519.9,390.3,515,372c-5.2-19.7-2.9-38.4,5.7-56.3c11.3-23.6,28.1-43,47.3-60.6c24.3-22.2,50.6-41.4,78.1-59.2
		c5.4-3.5,11-6.9,16.3-10.5c1.4-0.9,3.1-2.6,3.2-4.1c1.6-13.2,6.5-24.7,16.8-33.4c17.1-14.6,40.5-16,58.9-3.1
		c12.8,9,19.8,21.7,20.6,36.7c0.9,16.3-5.7,30.3-19.1,40.5C734.5,228.4,725,231.9,714.2,231.3z"/>
	<path class="st1" d="M220.9,766.9c-0.8-28.1,24.8-49.5,50.5-47.6c7.3,0.5,14.6,3.9,21.6,6.8c3,1.2,4.7,1.8,7.5-0.1
		c17.1-11.8,35-22.6,51.6-35.1c24.1-18.2,47.7-37.4,64-63.4c4.8-7.8,8.7-16.7,10.4-25.7c2.2-11.4-3.9-21.2-11.5-29.4
		c-11.9-12.8-24.4-25-36.4-37.8c-16.8-18-26.2-39.2-23.8-64.2c1.1-11.7,5-23.1,12.3-32.5c8.9-11.4,17.5-23.3,28.3-32.7
		c20.6-18.1,42.4-34.7,64.1-51.5c8.4-6.5,20.7-3.3,28.5,6.3c6.2,7.5,5.8,20.1-1.7,26.7c-7,6.2-15,11.2-22.2,17.2
		c-20.7,17.3-42.5,33.3-58.5,55.5c-11.2,15.6-8.8,28.4,1.6,40.9c11.1,13.3,24,25.1,36,37.6c11.2,11.8,20.6,24.8,24.5,40.9
		c2.6,10.8,3.5,21.6,1.5,32.9c-4.4,25.8-18.5,46.3-35.5,64.7c-13.3,14.5-28.7,27.1-43.7,40c-21.9,18.9-46.5,34-70.7,49.7
		c-1.6,1-3.2,3.3-3.4,5.1c-1.3,15-8.4,26.5-20.5,34.9c-27.4,19.1-63.3,3.6-71.8-24.1C222.2,777.2,221.8,772,220.9,766.9z"/>
	<path class="st1" d="M809.2,476.7c-14-9.3-27.9-18.6-41.9-27.9c-14-9.2-28.1-18.3-42.1-27.5c-14.2-9.3-28.4-18.5-42.6-27.9
		c-9-5.9-11.4-11.9-8.8-22.6c2.7-11.1,5.4-22.1,8.4-33.1c0.8-2.9,2.4-5.6,4.1-8.1c3.6-5.4,8.7-6.1,15.1-2.1
		c12.1,7.7,24.2,15.3,36.1,23.3c15.4,10.3,30.6,20.8,45.8,31.3c20,13.7,39.8,27.6,59.8,41.3c10.7,7.3,21.3,14.8,32.3,21.7
		c16.8,10.5,24.8,37.8,5.1,55.7c-9.8,8.9-21.1,16.3-32,24.1c-28.4,20.4-56.8,40.8-85.4,60.8c-20.6,14.5-41.6,28.4-62.4,42.6
		c-6.1,4.2-8.9,3.9-13.5-2c-2.6-3.4-4.8-7.4-6.3-11.4c-4.6-11.9-9.4-23.8-9.3-36.9c0-5.9,2.4-9.8,7.1-12.9
		c18.6-12.3,37.2-24.8,55.7-37.2c24.5-16.5,49-33,73.5-49.6C808.4,477.9,808.7,477.4,809.2,476.7z"/>
	<path class="st1" d="M176.2,476.2c18.9,12.1,37,23.7,55,35.4c21.1,13.8,42,27.8,63,41.7c3.5,2.3,6.8,4.9,10.5,6.9
		c8.6,4.7,10.2,12.7,8.5,20.8c-2.6,13-6.7,25.6-10.4,38.4c-0.6,2.1-2.1,4.3-3.7,5.7c-3.4,2.8-6.9,5-11.7,1.8
		c-14.8-9.8-29.9-19-44.7-28.8c-14-9.3-27.7-18.9-41.6-28.4c-31.5-21.5-63.1-42.8-94.3-64.8c-4.6-3.2-7.7-9.6-9.7-15.2
		c-5.4-14.8,0.3-31.8,13.7-41.5c29.5-21.4,59.3-42.4,89-63.5c23.5-16.7,47.1-33.2,70.7-49.7c5.9-4.1,12.2-7.8,18.5-11.5
		c4.4-2.5,8.4-0.5,10.3,3.3c4.4,8.6,8.4,17.5,11.7,26.5c2.2,6,3.2,12.5,4.6,18.8c1.2,5.2-1.8,12.2-6.7,15.4
		c-23.5,15.6-47.1,31.1-70.5,46.9c-17.7,11.9-35.2,24.2-52.9,36.2C182.8,472.5,179.9,474,176.2,476.2z"/>
</g>
</svg>
